<svg width="112" height="37" viewBox="0 0 112 37" fill="none" xmlns="http://www.w3.org/2000/svg">
<path d="M21.608 5.291L21.571 24.05L20.572 27.639L11.507 27.602V29.156L10.508 32.745H2.34116e-05V3.589L0.999023 5.96046e-08H15.022L21.608 5.291ZM20.017 6.068L14.467 1.591H2.59002V27.565H9.91602V22.422H19.98L20.017 6.068ZM12.654 17.982H9.91602V7.918H12.654V17.982ZM41.5895 29.156L40.5905 32.745H26.4935L19.9815 26.344V3.589L20.9805 5.96046e-08H41.5895V29.156ZM39.9985 27.565V1.591H32.6355V21.238H29.8975V1.591H22.5715V22.089L28.1215 27.565H39.9985ZM61.5709 9.509L61.2009 10.471H61.5339V23.976L60.5349 27.565L55.9099 32.745H39.9629V23.717L40.9619 21.756H39.9629L39.9999 11.137L47.2519 5.96046e-08H61.5709V9.509ZM59.9799 7.918V1.591H48.1029L42.5529 10.138V16.576H53.5789V21.719H42.5529V27.565H56.2059L59.9429 23.384V12.062H49.6939V7.918H59.9799ZM81.5154 29.156L80.5164 32.745H71.4514L70.4524 36.112H59.9444V3.589L60.9434 5.96046e-08H81.5154V29.156ZM79.9244 27.565V1.591H72.5984V12.062H69.8604V1.591H62.5344V30.932H69.8604V16.576H72.5984V27.565H79.9244ZM101.534 29.156L100.535 32.745H86.4378L79.9258 26.344V3.589L80.9248 5.96046e-08H101.534V29.156ZM99.9428 27.565V1.591H92.5798V21.238H89.8418V1.591H82.5158V22.089L88.0658 27.565H99.9428ZM111.414 29.156L110.415 32.745H99.9072V3.589L100.906 5.96046e-08H111.414V29.156ZM109.823 7.215V1.591H102.497V7.215H109.823ZM109.823 27.565V9.99H102.497V27.565H109.823Z" fill="white"/>
</svg>
