<svg width="81" height="28" viewBox="0 0 81 28" fill="none" xmlns="http://www.w3.org/2000/svg">
<path d="M15.625 11.7188L18.7695 0H26.582L23.4375 11.7188H19.5312L18.4961 15.625H14.5898L11.4453 27.3438H3.63281L6.77734 15.625H2.87109L3.90625 11.7188H0L3.14453 0H10.957L7.8125 11.7188H15.625Z" fill="white"/>
<path d="M45.0781 3.90625H37.2656L32.0312 23.4375H39.8438L45.0781 3.90625ZM28.125 23.4375H24.2188L29.4531 3.90625H33.3594L34.3945 0H50.0195L48.9844 3.90625H52.8906L47.6562 23.4375H43.75L42.6953 27.3438H27.0703L28.125 23.4375Z" fill="white"/>
<path d="M72.4219 3.90625H64.6094L62.5 11.7188H70.3125L72.4219 3.90625ZM74.2188 11.7188L73.1836 15.625H61.4648L58.3203 27.3438H50.5078L57.832 0H77.3633L76.3281 3.90625H80.2344L78.125 11.7188H74.2188Z" fill="white"/>
</svg>
